PathFileType	4	(X/Y/Z)	C:\Users\Ali Mert BOSTAN\Desktop\Yazýlým\Hacettepe-Bil-D-nem-Proje\basket_Sports2D\basket_Sports2D_px_person00.trc
DataRate	CameraRate	NumFrames	NumMarkers	Units	OrigDataRate	OrigDataStartFrame	OrigNumFrames
120.0	120.0	8	22	m	120.0	133	266
Frame#	Time	Hip			RHip			RKnee			RAnkle			RBigToe			RSmallToe			RHeel			LHip			LKnee			LAnkle			LBigToe			LSmallToe			LHeel			Neck			Head			Nose			RShoulder			RElbow			RWrist			LShoulder			LElbow			LWrist		
		X1	Y1	Z1	X2	Y2	Z2	X3	Y3	Z3	X4	Y4	Z4	X5	Y5	Z5	X6	Y6	Z6	X7	Y7	Z7	X8	Y8	Z8	X9	Y9	Z9	X10	Y10	Z10	X11	Y11	Z11	X12	Y12	Z12	X13	Y13	Z13	X14	Y14	Z14	X15	Y15	Z15	X16	Y16	Z16	X17	Y17	Z17	X18	Y18	Z18	X19	Y19	Z19	X20	Y20	Z20	X21	Y21	Z21	X22	Y22	Z22
133	1.1083333333333334	378.5243040031512	601.4487972078924	0.0	389.35264046427324	599.8488379763514	0.0	408.13396376298823	794.3771271091495	0.0	373.9992708374479	991.3892429318538	0.0	450.93336457011924	1010.1135139021844	0.0	438.1045430896089	1021.5621224828965	0.0	350.5734768544938	1010.473212130754	0.0	363.0913479572001	597.1270577070045	0.0	370.46566968121584	786.6139980104958	0.0	355.050971462208	979.1184076550583	0.0	440.92131244223066	996.7337158070362	0.0	428.9497976712203	993.2494226905623	0.0	331.2968366431877	996.9215843705754	0.0	391.6586834270993	341.13432672023924	0.0	403.96638920948436	227.4069179553841	0.0	444.46687586174414	283.64873128838155	0.0	411.08528992730726	364.0725581275017	0.0	531.6817813979793	398.17021195561097	0.0	530.0987324011123	307.7942583160486	0.0	361.46964068940775	365.938663215317	0.0	390.65192672674993	413.9701644042996	0.0	465.1238887857507	351.8146502661716	0.0
134	1.1166666666666667	378.710751372984	601.3685386787189	0.0	389.5699614009531	599.7521999979986	0.0	408.2423987750482	794.1408186254055	0.0	373.9390405276358	991.3347577555384	0.0	450.9146127729065	1010.0847739278314	0.0	438.09001439098523	1021.6310484364164	0.0	350.34248522330375	1010.4612784354148	0.0	363.24136889047844	597.038705988068	0.0	370.5464364419619	786.3481410945433	0.0	355.1103720335226	978.8163993178933	0.0	441.03692973316004	996.6351242755647	0.0	429.0060521432967	993.0741693481395	0.0	331.2205904044676	996.6352788782843	0.0	391.59065081241727	341.16265154729786	0.0	404.03341532671084	227.40010361955945	0.0	444.2084081575314	283.51233821911353	0.0	411.26135400369066	364.01823151445956	0.0	532.4097839259563	396.77871628640537	0.0	529.1304713645504	306.28731030424035	0.0	361.3774385044013	365.90151439204425	0.0	388.4114708460336	414.43248429756903	0.0	460.87385422807836	352.2314645510495	0.0
135	1.125	378.89563100745653	601.2859614145974	0.0	389.86602546304323	599.6730765530331	0.0	408.3500670605943	793.8998703628303	0.0	373.96157850120085	991.2849338046033	0.0	450.99271425868346	1010.0411246780134	0.0	438.16147614401666	1021.6612649374572	0.0	350.17718030589697	1010.4472522440614	0.0	363.39500715591765	596.9252470120953	0.0	370.6055122895142	786.0497434706525	0.0	355.1673485034565	978.4856439360474	0.0	441.16453727520957	996.4951409996412	0.0	429.02974260350265	992.8747568140058	0.0	331.16644691315685	996.3224336848392	0.0	391.5193493080064	341.2035992476066	0.0	404.105828152039	227.36294554298894	0.0	443.9284817636072	283.3824522147804	0.0	411.450036424338	363.97231745553734	0.0	533.1385612311045	395.341271216687	0.0	528.1516043930379	304.73299557748004	0.0	361.2548155449461	365.8634397958354	0.0	386.6189800318721	415.0138952616216	0.0	456.4712693001324	352.60039302836134	0.0
136	1.1333333333333333	379.08585766579614	601.2071767342085	0.0	390.23411557868195	599.6190818624524	0.0	408.4438172671249	793.6699500895919	0.0	374.0425106591338	991.2480842375402	0.0	451.1588694064657	1009.986634692764	0.0	438.3005052757703	1021.6602630999336	0.0	350.06025890225243	1010.4382532683371	0.0	363.53922432881376	596.7874339532427	0.0	370.64734969063755	785.7356615659403	0.0	355.2319107122844	978.142258171966	0.0	441.31690206222777	996.3272712098594	0.0	429.04111439952385	992.6683716415466	0.0	331.13862065075085	996.0116549334894	0.0	391.4473918531015	341.25163109768533	0.0	404.17885124292525	227.29830646910565	0.0	443.63931889601326	283.25461044804206	0.0	411.66251578580614	363.9269305173227	0.0	533.8632066055893	393.85993299185066	0.0	527.1584709325526	303.1400814126387	0.0	361.10178687277624	365.8224084751886	0.0	385.17355359975477	415.70932487880435	0.0	451.98132379325233	353.5190269485737	0.0
137	1.1416666666666666	379.2854838005649	601.1226237446557	0.0	390.6558987932875	599.5799758911666	0.0	408.51915197684235	793.4529762286664	0.0	374.1490716061549	991.2258590995916	0.0	451.38965837607986	1009.9282867310012	0.0	438.4772514504346	1021.6369563824909	0.0	349.96638072592134	1010.4428481154736	0.0	363.66256255048273	596.6162353944893	0.0	370.67421516671516	785.4117393708356	0.0	355.3070459576991	977.8004531970245	0.0	441.4919930481525	996.1449078191957	0.0	429.04493291189283	992.4660535469105	0.0	331.13705778074956	995.7291637920728	0.0	391.37811906459626	341.2984193990716	0.0	404.24699624063106	227.21480270503045	0.0	443.3496725329086	283.1260882598709	0.0	411.9078790765019	363.8771196106501	0.0	534.5776610077737	392.34729052025546	0.0	526.1544621394835	301.5212656455473	0.0	360.9236184851664	365.7775642064414	0.0	384.0191401186146	416.46806590631775	0.0	447.5758555129567	355.2219689695471	0.0
138	1.15	379.49659054362695	601.0107971799116	0.0	391.1058729441837	599.5341915958609	0.0	408.58431095883975	793.2327443273857	0.0	374.2605600533589	991.2102376007039	0.0	451.6592741894252	1009.873116064628	0.0	438.667055916738	1021.5987706239334	0.0	349.88475381348076	1010.4660235126618	0.0	363.75624667299155	596.4032510897604	0.0	370.6921539236273	785.0699585194724	0.0	355.38532140484625	977.4661449566481	0.0	441.67595961157235	995.9562089844023	0.0	429.0343585530394	992.2727069031016	0.0	331.15379773910166	995.4862471948942	0.0	391.3120115382197	341.3376064975997	0.0	404.2983788294098	227.1258823861395	0.0	443.0642190557341	283.0049636702389	0.0	412.1955973259991	363.82045449816803	0.0	535.2725839110293	390.82278804616186	0.0	525.1441372557196	299.89420514117114	0.0	360.7228175704226	365.73889249072346	0.0	383.1372826772739	417.2557766246648	0.0	443.41255711930074	357.56933773661876	0.0
139	1.1583333333333332	379.7205280940229	600.8532914851786	0.0	391.56044969758653	599.460386394839	0.0	408.6543212420949	792.9908925508036	0.0	374.37522063514723	991.1888292793531	0.0	451.9384784795475	1009.8261198746546	0.0	438.8550726463585	1021.5486546042495	0.0	349.8248505144169	1010.4975165263371	0.0	363.8181603422679	596.1444040444312	0.0	370.71196415158937	784.7048000625878	0.0	355.45863429669384	977.1457953616457	0.0	441.85800711150074	995.771252163217	0.0	429.00808087445665	992.0958329621701	0.0	331.18474390075136	995.2855439960712	0.0	391.2439950862889	341.365030695535	0.0	404.3189375099555	227.04321404549614	0.0	442.7865785254929	282.9036302738847	0.0	412.52667308605027	363.75659570801616	0.0	535.9391914687567	389.3047812940864	0.0	524.1280740677674	298.27751943250786	0.0	360.4967932375427	365.7226090282109	0.0	382.5214191759032	418.01275435048495	0.0	439.6075037832416	360.0038365633452	0.0
140	1.1666666666666667	379.9556967539802	600.6477613132097	0.0	392.0079563173186	599.3467070554116	0.0	408.7435083632547	792.7258717898627	0.0	374.50607926260864	991.1554414606599	0.0	452.19616280778575	1009.7905593409878	0.0	439.0360916855212	1021.4877802162295	0.0	349.8078349731767	1010.5145722901418	0.0	363.8536781109809	595.8401279389025	0.0	370.7408255091653	784.3250559463129	0.0	355.5229579878707	976.8528711240145	0.0	442.0375117185973	995.6054906836296	0.0	428.9752742644388	991.9488677282943	0.0	331.2376888580786	995.1308586886857	0.0	391.16507449019537	341.3769972649601	0.0	404.29970419169143	226.97221211507647	0.0	442.5222744083267	282.828591922445	0.0	412.88873463283505	363.6834643205981	0.0	536.573573436343	387.80267539092733	0.0	523.1043067812226	296.6865437290191	0.0	360.24149932994885	365.7400395238136	0.0	382.14987717226256	418.6265817341815	0.0	436.2344846171075	361.67127441120175	0.0
